<?xml version="1.0" standalone="no"?><!DOCTYPE svg PUBLIC "-//W3C//DTD SVG 1.1//EN" "http://www.w3.org/Graphics/SVG/1.1/DTD/svg11.dtd"><svg t="1769702366296" class="icon" viewBox="0 0 1024 1024" version="1.1" xmlns="http://www.w3.org/2000/svg" p-id="788" xmlns:xlink="http://www.w3.org/1999/xlink" width="256" height="256"><path d="M656.7936 606.0032l27.4432-32.1536-41.3696-7.7824 13.9264 39.936zM612.7616 364.544l-1.4336-0.2048v-0.2048l-42.3936-7.9872 14.7456 42.1888 29.0816-33.792z m-71.68 142.1312l43.2128 7.9872-14.7456-41.3696-28.4672 33.3824zM712.704 305.152l-29.2864 34.4064 44.2368 8.192L712.704 305.152zM254.1568 823.9104l130.2528-630.1696-371.9168 172.032c-10.6496 4.7104-15.36 17.408-10.6496 28.0576l284.0576 595.1488c4.7104 10.6496 17.2032 15.5648 27.8528 10.6496l223.6416-103.424L266.24 844.8c-8.3968-1.8432-13.9264-11.0592-12.0832-20.8896z m400.9984-451.584l-56.9344 66.7648 0.2048 0.4096-0.2048 0.2048 29.696 83.3536 85.8112 15.9744 0.2048-0.2048h0.2048l57.1392-66.9696-29.2864-83.5584-86.8352-15.9744zM1003.9296 121.856L541.2864 34.6112c-3.2768 91.5456 45.6704 138.0352 45.6704 138.0352C510.1568 147.456 485.1712 80.0768 477.3888 47.104l-148.6848 722.944c-2.4576 12.9024 6.144 25.3952 19.0464 27.8528l458.752 86.4256c1.024-89.9072-47.7184-134.9632-47.7184-134.9632 82.7392 26.0096 106.7008 101.1712 112.8448 130.6624 1.2288-2.2528 2.048-4.5056 2.6624-7.168L1022.976 149.504c2.4576-12.9024-6.144-25.1904-19.0464-27.648z m-189.2352 358.6048l12.9024 36.6592h-0.2048l31.1296 88.6784-113.8688-21.0944v0.4096l-16.384-3.072-85.6064 100.5568-43.8272-124.5184-26.4192-4.9152v-0.4096l-103.8336-19.2512 86.016-101.1712-44.032-125.3376 129.8432 24.1664 86.016-100.9664 42.3936 120.6272h0.2048l1.6384 4.7104 129.6384 24.1664-85.6064 100.7616z m13.7216-75.9808l-43.2128-7.9872 14.5408 41.5744 28.672-33.5872z m-36.864 125.7472l-6.144-17.408-28.8768 33.9968 43.8272 8.192-8.8064-24.7808z" fill="#2c2c2c" p-id="789"></path></svg>